<svg width="85" height="43" viewBox="0 0 85 43" fill="none" xmlns="http://www.w3.org/2000/svg">
<g filter="url(#filter0_d_27_8723)">
<path d="M20.316 10.048C20.7 10.048 21.012 10.228 21.252 10.588C21.516 10.924 21.648 11.44 21.648 12.136C21.648 12.784 21.516 13.276 21.252 13.612C20.988 13.924 20.652 14.212 20.244 14.476C19.86 14.74 19.584 14.932 19.416 15.052C16.872 16.804 15.096 18.808 14.088 21.064C13.104 23.32 12.504 25.732 12.288 28.3C12.192 29.308 11.916 30.04 11.46 30.496C11.028 30.952 10.476 31.18 9.804 31.18C9.132 31.18 8.568 30.952 8.112 30.496C7.656 30.016 7.428 29.188 7.428 28.012C7.428 26.644 7.68 25.144 8.184 23.512C8.712 21.856 9.54 20.212 10.668 18.58C11.82 16.948 13.272 15.496 15.024 14.224L6.168 14.368C5.664 14.368 5.28 14.2 5.016 13.864C4.752 13.528 4.62 13.108 4.62 12.604C4.62 11.98 4.812 11.428 5.196 10.948C5.604 10.444 6.144 10.192 6.816 10.192C7.992 10.192 9.708 10.276 11.964 10.444C12.42 10.468 13.26 10.516 14.484 10.588C15.708 10.66 16.668 10.696 17.364 10.696C17.676 10.696 18.132 10.588 18.732 10.372C18.852 10.348 19.08 10.288 19.416 10.192C19.776 10.096 20.076 10.048 20.316 10.048ZM31.9825 31.18C30.5905 31.18 29.0185 31.06 27.2665 30.82C26.3065 30.7 25.6465 30.448 25.2865 30.064C24.9265 29.68 24.7705 29.056 24.8185 28.192C24.9865 25.816 25.3825 22.888 26.0065 19.408C26.6305 15.904 27.3865 12.532 28.2745 9.292C28.4425 8.692 28.7785 8.272 29.2825 8.032C29.7865 7.792 30.4465 7.672 31.2625 7.672C32.7265 7.672 33.4585 8.08 33.4585 8.896C33.4585 9.232 33.3865 9.616 33.2425 10.048C32.6185 11.968 31.9945 14.548 31.3705 17.788C30.7465 21.004 30.3025 24.076 30.0385 27.004C30.7585 27.076 31.5745 27.112 32.4865 27.112C36.6865 27.112 39.8185 25.84 41.8825 23.296C43.9705 20.752 45.0145 17.356 45.0145 13.108C45.0145 10.252 44.1985 8.044 42.5665 6.484C40.9345 4.924 38.6305 4.144 35.6545 4.144C33.7345 4.144 31.8265 4.444 29.9305 5.044C28.0585 5.644 26.3665 6.436 24.8545 7.42C24.5425 7.636 24.2065 7.744 23.8465 7.744C23.4385 7.744 23.1145 7.576 22.8745 7.24C22.6345 6.88 22.5145 6.448 22.5145 5.944C22.5145 5.368 22.6105 4.9 22.8025 4.54C22.9945 4.156 23.3185 3.808 23.7745 3.496C25.4305 2.368 27.3745 1.516 29.6065 0.939999C31.8385 0.339999 33.9865 0.0399995 36.0505 0.0399995C38.9785 0.0399995 41.5105 0.555999 43.6465 1.588C45.7825 2.596 47.4265 4.084 48.5785 6.052C49.7305 8.02 50.3065 10.396 50.3065 13.18C50.3065 16.804 49.5865 19.972 48.1465 22.684C46.7065 25.372 44.6065 27.46 41.8465 28.948C39.0865 30.436 35.7985 31.18 31.9825 31.18ZM80.6163 9.544C80.6163 11.584 80.0883 13.456 79.0323 15.16C77.9763 16.864 76.4403 18.256 74.4243 19.336C72.4083 20.416 70.0083 21.052 67.2243 21.244L65.6763 29.92C65.0763 33.256 63.4443 34.924 60.7803 34.924C59.3163 34.924 57.9603 34.492 56.7123 33.628C55.4883 32.764 54.5043 31.444 53.7603 29.668C53.0163 27.892 52.6443 25.708 52.6443 23.116C52.6443 18.244 53.4243 14.116 54.9843 10.732C56.5683 7.324 58.6803 4.78 61.3203 3.1C63.9843 1.396 66.9123 0.543999 70.1043 0.543999C72.3603 0.543999 74.2683 0.939999 75.8283 1.732C77.4123 2.524 78.6003 3.604 79.3923 4.972C80.2083 6.316 80.6163 7.84 80.6163 9.544ZM67.8723 17.536C72.7923 16.912 75.2523 14.356 75.2523 9.868C75.2523 8.284 74.7243 7 73.6683 6.016C72.6363 5.008 71.0283 4.504 68.8443 4.504C66.3723 4.504 64.2123 5.284 62.3643 6.844C60.5403 8.404 59.1243 10.576 58.1163 13.36C57.1323 16.12 56.6403 19.276 56.6403 22.828C56.6403 24.316 56.7843 25.636 57.0723 26.788C57.3843 27.94 57.7683 28.84 58.2243 29.488C58.7043 30.112 59.1603 30.424 59.5923 30.424C60.1923 30.424 60.6483 29.596 60.9603 27.94L62.1483 21.136C61.2123 20.992 60.8043 20.932 60.9243 20.956C60.2043 20.836 59.7363 20.62 59.5203 20.308C59.3043 19.972 59.1963 19.552 59.1963 19.048C59.1963 18.52 59.3403 18.1 59.6283 17.788C59.9403 17.476 60.3603 17.32 60.8883 17.32C61.1283 17.32 61.3083 17.332 61.4283 17.356C62.0043 17.452 62.4483 17.512 62.7603 17.536C63.0723 15.664 63.5163 13.156 64.0923 10.012C64.2363 9.196 64.5603 8.62 65.0643 8.284C65.5923 7.924 66.2043 7.744 66.9003 7.744C67.6923 7.744 68.2563 7.9 68.5923 8.212C68.9523 8.5 69.1323 8.968 69.1323 9.616C69.1323 10 69.1083 10.312 69.0603 10.552L67.8723 17.536Z" fill="url(#paint0_linear_27_8723)"/>
</g>
<defs>
<filter id="filter0_d_27_8723" x="0.619995" y="0.0400391" width="83.9963" height="42.8839" filterUnits="userSpaceOnUse" color-interpolation-filters="sRGB">
<feFlood flood-opacity="0" result="BackgroundImageFix"/>
<feColorMatrix in="SourceAlpha" type="matrix" values="0 0 0 0 0 0 0 0 0 0 0 0 0 0 0 0 0 0 127 0" result="hardAlpha"/>
<feOffset dy="4"/>
<feGaussianBlur stdDeviation="2"/>
<feComposite in2="hardAlpha" operator="out"/>
<feColorMatrix type="matrix" values="0 0 0 0 0 0 0 0 0 0 0 0 0 0 0 0 0 0 0.25 0"/>
<feBlend mode="normal" in2="BackgroundImageFix" result="effect1_dropShadow_27_8723"/>
<feBlend mode="normal" in="SourceGraphic" in2="effect1_dropShadow_27_8723" result="shape"/>
</filter>
<linearGradient id="paint0_linear_27_8723" x1="41.5" y1="-16" x2="41" y2="97" gradientUnits="userSpaceOnUse">
<stop stop-color="#FF9800"/>
<stop offset="1" stop-color="#8B8B8B"/>
</linearGradient>
</defs>
</svg>
