<svg width="32" height="32" viewBox="0 0 32 32" fill="none" xmlns="http://www.w3.org/2000/svg">
<path d="M12.2097 27.6952V23.6062C12.2096 22.5661 13.0575 21.7211 14.1081 21.7141H17.9562C19.0117 21.7141 19.8674 22.5612 19.8674 23.6062V27.7079C19.8671 28.5909 20.579 29.3126 21.4708 29.3333H24.0362C26.5935 29.3333 28.6667 27.2809 28.6667 24.7491V13.1171C28.6531 12.1211 28.1807 11.1858 27.384 10.5773L18.6103 3.58036C17.0733 2.36205 14.8883 2.36205 13.3513 3.58036L4.61607 10.59C3.81639 11.196 3.34322 12.1328 3.33337 13.1298V24.7491C3.33337 27.2809 5.40654 29.3333 7.96392 29.3333H10.5293C11.4432 29.3333 12.184 28.5999 12.184 27.6952" stroke="black" stroke-width="2" stroke-linecap="round" stroke-linejoin="round"/>
</svg>
