<svg width="45" height="45" viewBox="0 0 45 45" fill="none" xmlns="http://www.w3.org/2000/svg">
<g filter="url(#filter0_d_27_8729)">
<circle cx="22.125" cy="18.5" r="18" fill="white"/>
</g>
<path d="M23.7658 26.0695C24.0433 25.8219 24.4691 25.8065 24.7653 26.0495C25.0911 26.3168 25.1368 26.7954 24.8673 27.1186C24.2029 27.9802 23.1751 28.4899 22.0815 28.5L21.8644 28.4909C20.8561 28.4177 19.9228 27.9205 19.3046 27.1186L19.2388 27.0269C19.0457 26.7101 19.1104 26.2925 19.4066 26.0495C19.7324 25.7822 20.215 25.8275 20.4845 26.1507C20.6029 26.3076 20.7433 26.4469 20.9015 26.5642C21.3244 26.8765 21.8554 27.0084 22.3768 26.9308C22.8981 26.8531 23.3667 26.5723 23.6785 26.1507H23.6873L23.7658 26.0695ZM22.0904 8.5C25.1601 8.5 28.6024 10.6645 28.9928 14.1401V15.9527C29.1261 16.6069 29.4323 17.2142 29.88 17.7125C29.9065 17.7426 29.9303 17.775 29.951 17.8093C30.3569 18.4204 30.5898 19.1285 30.6252 19.8594L30.5986 20.0442C30.6292 21.0445 30.2953 22.0223 29.6582 22.7983C28.8445 23.6763 27.7322 24.2247 26.5352 24.3381C23.5869 24.6617 20.6116 24.6617 17.6632 24.3381C16.4838 24.217 15.3908 23.6687 14.5935 22.7983C13.9459 22.0334 13.602 21.0603 13.6265 20.0618V19.9386C13.6752 19.1858 13.9264 18.4596 14.354 17.8357L14.4249 17.7477C14.8696 17.2473 15.1753 16.6409 15.3121 15.9879V14.1753L15.3612 14.0741C15.5104 13.817 15.8009 13.6666 16.1051 13.6996C16.4474 13.7366 16.7223 13.9964 16.776 14.3337V16.1463C16.7795 16.1785 16.7795 16.2109 16.776 16.2431C16.5913 17.1508 16.1691 17.9944 15.5517 18.6892C15.3139 19.0648 15.1794 19.4955 15.1613 19.9386V20.1322C15.1416 20.7554 15.3496 21.3647 15.7469 21.848C16.2977 22.4123 17.0343 22.7619 17.8229 22.8335C20.6772 23.1415 23.5568 23.1415 26.411 22.8335C27.2212 22.7597 27.9758 22.3934 28.5314 21.804C28.9092 21.3322 29.1072 20.7433 29.0904 20.141V19.9386C29.0722 19.494 28.941 19.0612 28.7089 18.6804C28.0658 17.9935 27.6187 17.1492 27.4136 16.2343C27.4101 16.2021 27.4101 16.1697 27.4136 16.1375V14.3161C27.1563 11.6588 24.4858 10.0134 22.1613 10.0134C21.1731 10.0112 20.2011 10.2628 19.34 10.7437L19.2346 10.7961C19.0178 10.8836 18.7697 10.8683 18.5636 10.7494C18.323 10.6108 18.1777 10.3533 18.1842 10.0775C18.1907 9.80168 18.348 9.55122 18.5948 9.42389C19.6618 8.82607 20.8649 8.50808 22.0904 8.5Z" fill="black"/>
<defs>
<filter id="filter0_d_27_8729" x="0.125" y="0.5" width="44" height="44" filterUnits="userSpaceOnUse" color-interpolation-filters="sRGB">
<feFlood flood-opacity="0" result="BackgroundImageFix"/>
<feColorMatrix in="SourceAlpha" type="matrix" values="0 0 0 0 0 0 0 0 0 0 0 0 0 0 0 0 0 0 127 0" result="hardAlpha"/>
<feOffset dy="4"/>
<feGaussianBlur stdDeviation="2"/>
<feComposite in2="hardAlpha" operator="out"/>
<feColorMatrix type="matrix" values="0 0 0 0 0 0 0 0 0 0 0 0 0 0 0 0 0 0 0.25 0"/>
<feBlend mode="normal" in2="BackgroundImageFix" result="effect1_dropShadow_27_8729"/>
<feBlend mode="normal" in="SourceGraphic" in2="effect1_dropShadow_27_8729" result="shape"/>
</filter>
</defs>
</svg>
