<svg width="45" height="45" viewBox="0 0 45 45" fill="none" xmlns="http://www.w3.org/2000/svg">
<g filter="url(#filter0_d_27_8725)">
<circle cx="22.125" cy="18.5" r="18" fill="white"/>
</g>
<path d="M31.835 26.79L28.125 23.11C29.5651 21.3144 30.2625 19.0353 30.0738 16.7413C29.8851 14.4473 28.8247 12.3128 27.1105 10.7767C25.3964 9.24053 23.1588 8.41954 20.8579 8.4825C18.5571 8.54546 16.3677 9.48759 14.7402 11.1152C13.1126 12.7427 12.1705 14.9321 12.1075 17.233C12.0445 19.5338 12.8655 21.7714 14.4017 23.4855C15.9378 25.1997 18.0723 26.2601 20.3663 26.4488C22.6603 26.6375 24.9394 25.9401 26.735 24.5L30.415 28.18C30.508 28.2738 30.6186 28.3482 30.7404 28.3989C30.8623 28.4497 30.993 28.4758 31.125 28.4758C31.257 28.4758 31.3877 28.4497 31.5096 28.3989C31.6315 28.3482 31.7421 28.2738 31.835 28.18C32.0153 27.9936 32.116 27.7444 32.116 27.485C32.116 27.2257 32.0153 26.9765 31.835 26.79ZM21.125 24.5C19.7406 24.5 18.3872 24.0895 17.236 23.3203C16.0849 22.5511 15.1877 21.4579 14.6579 20.1788C14.1281 18.8997 13.9894 17.4923 14.2595 16.1344C14.5296 14.7765 15.1963 13.5292 16.1753 12.5503C17.1542 11.5713 18.4015 10.9046 19.7594 10.6345C21.1173 10.3644 22.5247 10.5031 23.8038 11.0329C25.0829 11.5627 26.1761 12.4599 26.9453 13.611C27.7145 14.7622 28.125 16.1156 28.125 17.5C28.125 19.3565 27.3875 21.137 26.0748 22.4498C24.762 23.7625 22.9815 24.5 21.125 24.5Z" fill="black"/>
<defs>
<filter id="filter0_d_27_8725" x="0.125" y="0.5" width="44" height="44" filterUnits="userSpaceOnUse" color-interpolation-filters="sRGB">
<feFlood flood-opacity="0" result="BackgroundImageFix"/>
<feColorMatrix in="SourceAlpha" type="matrix" values="0 0 0 0 0 0 0 0 0 0 0 0 0 0 0 0 0 0 127 0" result="hardAlpha"/>
<feOffset dy="4"/>
<feGaussianBlur stdDeviation="2"/>
<feComposite in2="hardAlpha" operator="out"/>
<feColorMatrix type="matrix" values="0 0 0 0 0 0 0 0 0 0 0 0 0 0 0 0 0 0 0.25 0"/>
<feBlend mode="normal" in2="BackgroundImageFix" result="effect1_dropShadow_27_8725"/>
<feBlend mode="normal" in="SourceGraphic" in2="effect1_dropShadow_27_8725" result="shape"/>
</filter>
</defs>
</svg>
